<?xml version="1.0" encoding="utf-8"?>
<svg xmlns="http://www.w3.org/2000/svg" fill="none" height="34" viewBox="0 0 158 34" width="158">
    <g clip-path="url(#clip0)">
        <path clip-rule="evenodd" d="M52.8604 0.849121C53.0667 0.849121 53.9829 0.941553 54.2524 1.26095C54.5305 1.55045 54.5464 2.7243 54.578 2.71698C54.61 2.70935 54.6654 2.71698 54.697 2.77647C54.7289 2.83595 54.7051 3.46742 54.7051 3.5269C54.7051 3.58608 54.5624 3.57114 54.5624 3.66052C54.5624 3.74959 54.3848 4.10926 54.3848 4.10926C54.3848 4.20992 54.4382 4.47349 54.6801 4.83773C55.5118 5.59122 56.3032 5.61623 56.3032 5.61623C57.0952 5.72941 57.4573 5.98047 57.9132 6.7968C58.3695 7.61313 58.7186 10.3129 58.7186 10.3129C59.1746 11.3052 59.067 11.9831 59.067 12.4477C59.067 12.9123 58.5172 13.6908 58.1147 14.8213C57.7121 15.9512 57.2291 16.3908 56.9876 16.7551C56.7461 17.119 56.7461 17.4707 56.7461 17.4707L56.5851 24.5032C56.5851 24.5032 56.4374 26.9897 56.4511 27.0522C56.4645 27.1154 56.236 30.7947 56.236 30.7947C56.2364 30.7947 56.235 30.8483 56.3289 30.9865C56.4228 31.1247 56.2631 31.4475 56.2631 31.4475C56.2631 31.4475 55.1465 32.1445 54.7912 32.2476C54.1067 32.4468 53.5611 32.2836 53.4539 32.2836C53.3467 32.2836 52.9481 32.0594 53.2701 31.6894C53.8124 31.1903 53.9422 31.096 53.9422 31.096C53.9422 31.096 52.3317 31.1211 51.9028 31.1086C51.4736 31.0961 51.4866 30.8825 51.4733 30.7571C51.4599 30.6314 51.661 30.5058 51.661 30.5058C51.661 30.5058 52.9223 30.2419 53.4454 29.6269C53.8212 29.3127 53.6602 28.7352 53.6602 28.3582C53.6602 27.9817 51.5808 18.7141 51.5808 18.7141C51.5808 18.7141 51.5808 18.6513 51.2989 18.5759C51.0978 17.7096 51.1398 15.7563 51.044 15.562C50.9479 15.368 49.8247 14.3573 50.2422 12.4504C50.3055 11.7003 50.4951 7.43894 50.4951 7.43894C50.5779 7.183 52.4077 5.71873 52.4077 5.71873C52.3744 5.61959 52.3973 5.49238 52.483 5.39324C52.6032 5.25383 52.4673 5.02809 52.2089 4.79563C51.9889 4.59796 51.5958 3.40763 51.5378 3.28347C51.4798 3.15962 51.397 2.7484 51.4218 1.84879C51.5958 0.941553 52.7848 0.853697 52.7848 0.853697L52.8604 0.849121Z" fill="#595A59" fill-rule="evenodd"/>
        <path clip-rule="evenodd" d="M62.9082 16.431C62.9082 16.431 62.8876 17.0064 63.0235 17.1183C63.1593 17.2306 63.2562 17.7541 63.2562 18.0161C63.2562 18.2779 63.6444 22.7463 63.6444 23.6996C64.3624 23.9427 64.6534 23.8308 64.7117 24.0922C64.7699 24.3543 65.7014 27.4393 65.9341 28.0936C66.1671 28.748 66.5746 29.4023 66.497 29.7949C66.4195 30.1879 66.0313 30.4868 65.8179 30.5991C65.6045 30.711 65.3908 31.2534 65.0998 31.4779C64.8089 31.7019 64.5565 31.7394 64.5565 31.8892C64.5565 32.0386 64.6923 32.2256 65.2163 32.1698C65.74 32.1137 66.264 31.9267 66.264 31.9267C66.264 31.9267 66.0699 32.3193 66.2254 32.3568C66.3805 32.394 66.8076 32.5624 67.1955 32.4129C67.5837 32.2632 67.7584 32.0572 67.9912 31.8144C68.2242 31.5716 68.4715 31.3748 68.4715 31.3748C68.4715 31.3748 68.6994 31.0573 68.4765 30.6735C68.442 30.6149 68.1077 30.3559 67.9329 29.9819C67.7584 29.6082 67.603 29.2156 67.6806 28.8038C67.7584 28.3929 68.1077 26.7474 68.1273 26.3362C68.1466 25.925 68.2049 23.9803 68.2049 23.8866C68.2049 23.7933 69.0974 23.6063 69.2332 23.4007C69.3691 23.1951 69.1943 20.8766 69.175 20.2037C69.1557 19.5304 69.2332 18.3151 69.3494 18.2589C69.4663 18.2028 69.6214 18.0533 69.7765 18.1656C69.9317 18.2779 70.7856 18.3151 70.9021 18.2403C71.0183 18.1656 71.2513 17.8288 71.2513 17.8288C71.2513 17.8288 72.3962 17.7541 72.4155 17.586C72.4352 17.4176 71.8529 15.8472 71.7557 15.1739C71.6588 14.501 71.7557 13.6971 71.6978 13.5101C71.6395 13.3228 71.0573 11.2289 70.9797 10.4248C70.9021 9.62097 70.5697 7.23238 70.5177 7.03196C70.4636 6.823 70.3749 6.46151 69.8737 6.2742C68.9065 5.91271 68.7479 5.93772 68.7479 5.82546C68.7479 5.82546 68.7339 5.66866 68.8508 5.63114C68.9679 5.59362 69.074 5.60979 69.1462 5.69581C69.2184 5.78154 69.2966 5.81936 69.2966 5.70649C69.2966 5.59362 69.1794 5.34134 69.1629 5.22328C69.1462 5.10523 69.2019 5.17508 69.2744 4.99785C69.3469 4.82061 69.2354 4.74007 69.2744 4.55765C69.3133 4.37523 69.1629 2.61963 68.7004 2.12056C68.2378 1.62118 67.5748 1.04676 66.9511 0.993069C66.3267 0.939684 65.1736 1.44974 64.8339 2.36216C64.8339 2.36216 64.6164 2.75416 64.4717 2.87221C64.327 2.98997 64.4606 3.86517 64.4549 3.90269C64.4492 3.94022 64.5752 4.43746 64.5806 4.54484C64.5863 4.65222 64.3643 5.24311 64.1763 5.2663C64.0376 5.28338 64.1247 5.34714 64.2361 5.39564C64.3479 5.44384 64.2152 5.48746 64.2652 5.53566C64.3156 5.58386 64.3381 5.7495 64.4884 5.71198C64.6388 5.67416 64.6445 5.64731 64.7335 5.66348C64.8228 5.67965 64.818 5.92339 64.818 5.92339C64.818 5.92339 64.5207 5.91118 64.3843 6.03107C64.2481 6.15035 64.0002 6.52038 63.6288 6.61586C63.2568 6.71135 62.5508 7.06948 62.5384 7.45141C62.5384 7.45141 62.3526 9.52854 62.2782 9.98246C62.2038 10.4361 61.5712 14.2234 61.7694 14.7722C61.7694 14.7722 61.9166 14.982 61.9821 15.0244C62.0473 15.0662 62.167 15.5232 62.3035 15.6544C62.4399 15.7855 62.3526 16.3313 62.5378 16.3944C62.723 16.4576 62.8212 16.4524 62.8645 16.4417" fill="#595A59" fill-rule="evenodd"/>
        <path clip-rule="evenodd" d="M78.4752 4.25066C78.4752 4.25066 78.2226 4.44364 78.1614 4.59291C78.0999 4.74218 77.28 5.37405 76.391 5.61104C76.391 5.61104 75.3274 6.17243 75.1702 6.79537C75.0133 7.41831 74.5598 10.5078 74.5598 11.6398C74.5598 12.7721 74.6035 13.2981 74.6035 13.3507C74.6035 13.4037 74.8218 13.6933 74.9784 13.8161C74.935 14.4039 74.9173 15.4221 74.9959 15.624C75.0745 15.8259 76.1115 16.5806 76.3213 16.5892C76.3213 17.1419 76.3996 20.9067 76.4259 21.1086C76.4522 21.3102 76.7247 25.5347 76.7421 25.7807C76.784 26.3704 77.4183 29.6445 77.3849 29.5509C77.2978 29.305 77.8911 31.4022 77.9171 31.5339C77.9434 31.6657 78.0051 32.473 78.1272 32.6749C78.2843 32.8589 78.8948 32.9556 79.2523 32.9556C79.6095 32.9556 80.3074 32.7888 80.3074 32.7888C80.3074 32.7888 80.6211 32.5167 80.2985 32.148C79.9758 31.7796 79.7667 31.5601 79.6532 31.4284C79.5394 31.2963 79.4092 30.0418 79.3829 29.7876C79.3566 29.5328 79.2171 29.0154 79.0948 28.3484C78.9728 27.6818 79.1275 25.4227 79.1887 25.1072C79.2498 24.7911 79.5397 21.714 79.6532 21.521C79.7664 21.328 79.8798 22.1883 79.9933 22.8986C80.0722 23.3815 80.7123 24.9967 80.686 27.0589C80.686 27.0589 80.948 28.3918 81.1453 28.9366C81.0933 29.2262 81.0933 30.5072 81.0058 30.8319C80.9187 31.1566 80.8367 31.8297 81.011 31.8651C81.0786 31.8784 81.3575 31.8633 81.7258 31.8805C81.9585 31.891 81.9738 31.854 81.9634 31.7534C82.2799 31.8331 82.7276 31.8744 83.3139 31.8814C83.7625 31.8867 84.6433 31.9199 84.8182 31.854C84.9405 31.8082 84.883 31.5601 84.6751 31.4481C84.4313 31.3163 84.1971 31.3059 83.9708 31.2182C83.7445 31.1301 83.1683 30.7091 83.1074 30.4986C83.0466 30.2878 82.7368 27.2284 82.7888 26.6317C82.7888 26.6317 82.9032 25.7554 82.8952 25.4086C82.8775 24.6093 82.879 23.8395 82.9402 23.7355C83.1585 23.7739 83.1301 23.7739 84.0228 23.9608C84.0228 23.9608 85.3828 24.163 85.688 23.7062C85.9932 23.2498 86.1412 21.8457 86.1764 21.0119C86.2112 20.1782 86.2375 20.012 86.2375 20.012C86.2375 20.012 85.836 19.3626 84.8944 18.9501C83.9524 18.5377 83.6842 18.6122 83.475 18.5331C83.2656 18.454 83.2503 18.3167 83.346 18.1967C83.4625 18.0499 83.6127 18.0902 83.7607 18.0988C83.909 18.1077 84.0485 17.502 84.005 16.9228C83.9613 16.3436 84.1968 16.3353 84.2053 16.2823C84.2145 16.2297 84.0656 13.8866 83.9001 13.2547C83.7344 12.6228 82.9934 6.68149 82.9934 6.68149C82.9934 6.68149 82.8365 5.92682 82.0515 5.61966C81.2667 5.3125 80.7 5.04042 80.6129 4.97917C80.5254 4.91762 80.36 4.72464 80.36 4.59291C80.36 4.46118 80.3648 4.2719 80.452 4.21927C80.5392 4.16664 80.7957 3.39073 80.7957 3.39073C80.7957 3.39073 80.9095 3.2156 80.9095 3.17159C80.9095 3.12758 80.9618 2.34644 80.9618 2.25872C80.9618 2.17101 81.075 1.7235 81.075 1.59177C81.075 1.46035 80.9095 0.591489 79.7495 0.40713C79.311 0.337573 78.8452 0.369274 78.777 0.558249C78.7385 0.665356 78.6143 0.676436 78.5498 0.718909C78.284 0.894035 78.1846 1.15257 78.1801 1.19689C78.1712 1.28461 78.014 1.87246 78.1538 2.07436C78.2498 2.37291 78.2061 2.32028 78.2061 2.32028C78.2061 2.32028 78.1015 2.39045 78.1015 2.45201C78.1015 2.51326 78.0752 3.03986 78.0752 3.03986C78.0752 3.03986 78.2143 3.25931 78.2584 3.22422C78.3024 3.18883 78.3541 3.47875 78.3804 3.51353C78.4064 3.54893 78.5287 4.04907 78.485 4.22481" fill="#595A59" fill-rule="evenodd"/>
        <path clip-rule="evenodd" d="M6.67557 11.3035L4.85796 11.7292V27.0223C4.85796 28.234 4.72577 29.0854 4.42835 29.7076C3.96569 30.7228 2.74293 31.4105 1.45408 31.4105C1.09056 31.4105 0.892279 31.4105 0 31.3122L0.6279 33.2443C0.958374 33.2771 1.22275 33.2771 1.35494 33.2771C3.00731 33.2771 4.26311 32.7859 5.25453 31.8034C6.31205 30.7555 6.67557 29.5439 6.67557 27.0223V11.3035ZM7.03905 6.48955L5.65106 4.85217L4.19697 6.48955L5.65106 8.25792L7.03905 6.48955ZM17.6773 11.0743C13.2159 11.0743 9.54765 14.7747 9.54765 19.2611C9.54765 23.8131 13.282 27.6773 17.6773 27.6773C22.2378 27.6773 25.84 23.944 25.84 19.1957C25.84 14.611 22.3039 11.0743 17.6773 11.0743ZM17.7089 12.9409C21.1458 12.9409 23.8557 15.7572 23.8557 19.3267C23.8557 22.8307 21.0798 25.8107 17.8081 25.8107C14.3711 25.8107 11.5291 22.8634 11.5291 19.3267C11.5291 15.7572 14.2389 12.9409 17.7089 12.9409ZM30.8503 4.98316L29.0326 5.40887V17.5582C29.0326 18.6061 29.0326 19.3921 29.0657 19.785C29.0987 21.1604 29.5284 22.6996 30.1893 23.8457C31.5442 26.2036 34.188 27.6772 37.0962 27.6772C41.6567 27.6772 45.3581 23.9112 45.3581 19.2938C45.3581 14.7747 41.7228 11.0742 37.2614 11.0742C34.7168 11.0742 32.8 12.0894 30.8503 14.4472V4.98316ZM37.2296 12.9409C40.5673 12.9409 43.3764 15.8554 43.3764 19.2612C43.3764 22.8307 40.5343 25.8107 37.1304 25.8107C33.6274 25.8107 30.7853 22.9289 30.7853 19.3594C30.7853 15.7899 33.6604 12.9409 37.2296 12.9409ZM93.3959 4.98316L91.5783 5.40887V27.4807L93.3959 27.0222V4.98316ZM110.986 14.8075C109.598 12.3514 107.351 11.0743 104.443 11.0743C99.8491 11.0743 96.3461 14.6765 96.3461 19.4249C96.3461 23.8786 100.047 27.6773 104.377 27.6773C106.591 27.6773 108.507 26.9896 110.556 25.4832V23.0926C108.21 25.0575 106.558 25.8107 104.476 25.8107C102.063 25.8107 99.816 24.3698 98.9238 22.2084L110.986 14.8075ZM98.3605 20.4401C98.2944 19.8834 98.2283 19.4249 98.2283 19.1957C98.2283 15.7572 101.07 12.9409 104.474 12.9409C106.061 12.9409 107.316 13.3994 108.308 14.349L98.3605 20.4401ZM123.679 27.448L125.496 27.0551V17.329C125.496 15.7899 125.463 15.135 125.397 14.7092C125.232 13.8251 124.869 13.1046 124.241 12.5152C123.315 11.6637 121.861 11.1725 120.11 11.1725C118.556 11.1725 117.334 11.4017 115.714 12.0239L114.954 14.1525C115.219 14.0543 115.384 13.9888 115.483 13.9888C117.367 13.2684 116.838 13.4648 117.135 13.3666C118.127 13.1046 119.25 12.9409 119.978 12.9409C121.266 12.9409 122.39 13.3338 122.952 13.9888C123.481 14.5455 123.646 15.135 123.646 16.3794C123.646 16.4121 123.646 16.7068 123.613 17.0016V17.5583V18.2787C122.621 17.0016 121.101 16.3139 119.25 16.3139C115.979 16.3139 113.467 18.8027 113.467 22.0447C113.467 25.2867 115.913 27.71 119.184 27.71C121.134 27.71 122.456 27.0551 123.679 25.4832V27.448ZM119.483 18.0168C121.896 18.0168 123.746 19.7524 123.746 22.012C123.746 24.2716 121.896 25.9417 119.417 25.9417C117.038 25.9417 115.352 24.3044 115.352 22.012C115.352 19.687 117.104 18.0168 119.483 18.0168ZM143.613 4.98316L141.796 5.24514V14.2835C139.978 11.9911 138.194 11.0742 135.715 11.0742C131.155 11.0742 127.585 14.7747 127.585 19.5231C127.585 23.944 131.188 27.6772 135.484 27.6772C136.971 27.6772 138.59 27.186 139.78 26.3673C140.441 25.9088 140.904 25.4504 141.796 24.3369V27.4807L143.613 27.0222V4.98316ZM135.815 12.9409C139.351 12.9409 141.962 15.6262 141.962 19.2939C141.962 23.0271 139.318 25.8434 135.815 25.8434C132.279 25.8434 129.569 23.0599 129.569 19.4577C129.569 15.7572 132.279 12.9409 135.815 12.9409ZM157.769 12.8099C156.282 11.5327 154.728 10.9433 152.745 10.9433C149.705 10.9433 147.326 12.9409 147.326 15.5607C147.326 17.722 148.813 19.2612 151.424 19.8179L153.043 20.1781C154.133 20.4073 154.794 20.702 155.158 21.0295C155.687 21.5207 156.017 22.2739 156.017 22.9944C156.017 24.6318 154.53 25.8107 152.481 25.8107C150.73 25.8107 149.408 25.1885 148.317 23.8458L146.896 25.1885C148.185 26.7931 150.102 27.6773 152.349 27.6773C155.621 27.6773 158 25.6469 158 22.8634C158 20.5383 156.315 18.8354 153.473 18.246L152.184 18.0167C150.168 17.591 149.309 16.8378 149.309 15.4297C149.309 13.9233 150.73 12.8099 152.646 12.8099C154.133 12.8099 155.092 13.1374 156.645 14.218L157.769 12.8099Z" fill="#595A59" fill-rule="evenodd"/>
    </g>
    <defs>
        <clipPath id="clip0">
            <rect fill="white" height="32.9039" transform="translate(0 0.373291)" width="158"/>
        </clipPath>
    </defs>
</svg>